<svg id="Livello_1" xmlns="http://www.w3.org/2000/svg" viewBox="0 0 815.2 124.1"><style>.st0{fill:#fff}</style><path class="st0" d="M47.7 124.1H0L43.1 0H93l44.3 124.1H89.5l-4.1-15.5H51.3l-3.6 15.5zm29.8-44.9l-5.3-21.9c-1.3-5.3-2.1-10.7-3-16h-1.6l-8.2 37.8h18.1zM196 0h54.5c28 0 51.7 11.8 51.7 43.1 0 18.8-7.2 26.7-24 32.3v1c2.3 1.8 5.1 3.8 7.6 7.4l27 40.3h-52l-19.7-39.8h-.8v39.8H196V0zm44.1 55h3.1c7.4 0 14.8-1.2 14.8-10.4 0-9.5-6.7-10.7-14.5-10.7H240V55zM358.1 0h94.8v40.3L428 39.2v84.9h-45.1V39.2l-24.8 1.2V0zM522.3 31.3h-11.8L521.2.5h12.4l11 30.8h-11.8l-1-3.8h-8.5l-1 3.8zm7.4-11.2l-1.3-5.4c-.3-1.3-.5-2.7-.7-4h-.4l-2 9.4h4.4zM546.8.5H558v20.9h9.4v9.9h-20.6V.5zM570.3.5H591v8.4h-9.4v2.9h8.6v8h-8.6v3h9.8v8.4h-21V.5zM597.8 20.3l.6.4c2 1.6 4.4 2.8 7 2.8 1.1 0 2.9-.5 2.9-1.8 0-1.4-1.5-1.5-2.5-1.7l-2.2-.4c-4.4-.8-8-3.4-8-8.2C595.6 4.1 602.3 0 609 0c3.5 0 6.7.9 9.8 2.7l-3 7.9c-1.9-1.3-4.1-2.3-6.5-2.3-1 0-2.4.4-2.4 1.6 0 1.1 1.4 1.3 2.2 1.5l2.5.6c4.7 1.1 8.2 3.6 8.2 8.8 0 7.4-6.7 11-13.4 11-3.9 0-8.4-1.1-11.8-2.8l3.2-8.7zM624.8 20.3l.6.4c2 1.6 4.4 2.8 7 2.8 1.1 0 2.9-.5 2.9-1.8 0-1.4-1.5-1.5-2.5-1.7l-2.2-.4c-4.4-.8-8-3.4-8-8.2C622.6 4.1 629.3 0 636 0c3.5 0 6.7.9 9.8 2.7l-3 7.9c-1.9-1.3-4.1-2.3-6.5-2.3-1 0-2.4.4-2.4 1.6 0 1.1 1.4 1.3 2.2 1.5l2.5.6c4.7 1.1 8.2 3.6 8.2 8.8 0 7.4-6.7 11-13.4 11-3.9 0-8.4-1.1-11.8-2.8l3.2-8.7zM659.1 31.3h-11.8L658 .5h12.4l11 30.8h-11.8l-1-3.8H660l-.9 3.8zm7.4-11.2l-1.3-5.4c-.3-1.3-.5-2.7-.7-4h-.4l-2 9.4h4.4zM683.5.5h10.7l10 17.1h.3c-.4-2.6-.9-5.2-.9-7.8V.5h10.7v30.8h-10.7l-9.8-16.2h-.3c.4 2.1.7 4.1.7 6.2v10h-10.7V.5zM719.3.5h11.4C741.1.5 749 5 749 16.3c0 9.1-6.5 14.9-15.5 14.9h-14.2V.5zm11.2 21.6h.7c3.7 0 6.6-1.7 6.6-5.8 0-4.3-2.5-6.2-6.6-6.2h-.7v12zM753 .5h13.5c6.9 0 12.8 2.9 12.8 10.7 0 4.7-1.8 6.6-6 8v.2c.6.4 1.3.9 1.9 1.8l6.7 10H769l-4.9-9.9h-.2v9.9H753V.5zm10.9 13.6h.8c1.8 0 3.7-.3 3.7-2.6 0-2.4-1.7-2.7-3.6-2.7h-.9v5.3z"/><path class="st0" d="M793 31.3h-11.8L791.9.5h12.4l11 30.8h-11.8l-1-3.8H794l-1 3.8zm7.4-11.2l-1.3-5.4c-.3-1.3-.5-2.7-.7-4h-.4l-2 9.4h4.4z"/><g><path class="st0" d="M510.5 47.2H524c6.9 0 12.8 2.9 12.8 10.7 0 4.7-1.8 6.6-6 8v.2c.6.4 1.3.9 1.9 1.8l6.7 10h-12.9l-4.9-9.9h-.2v10h-10.9V47.2zm10.9 13.6h.8c1.8 0 3.7-.3 3.7-2.6 0-2.4-1.7-2.7-3.6-2.7h-.9v5.3zM569.7 47.2v18.2c0 9-5.6 13.1-14.3 13.1-8.6 0-14.2-4.1-14.2-13.1V47.2h11.2v17.2c0 2.4.1 4.5 3.1 4.5s3.1-2.1 3.1-4.5V47.2h11.1zM574.7 47.2h11.2V78h-11.2V47.2zM619.4 47.2v18.2c0 9-5.6 13.1-14.2 13.1s-14.3-4.1-14.3-13.1V47.2h11.2v17.2c0 2.4.1 4.5 3.1 4.5s3.1-2.1 3.1-4.5V47.2h11.1z"/></g><g><path class="st0" d="M510.5 92.6H534v10l-6.2-.3v21.1h-11.2v-21.1l-6.2.3v-10zM542.7 123.4h-11.8l10.7-30.8H554l11 30.8h-11.8l-1-3.8h-8.5l-1 3.8zm7.4-11.1l-1.3-5.4c-.3-1.3-.5-2.7-.7-4h-.4l-2 9.4h4.4zM567.2 92.6h11.2v20.9h9.4v9.9h-20.6V92.6zM590.7 92.6h20.7v8.4H602v2.9h8.6v8H602v3h9.8v8.4h-21V92.6zM616.2 92.6h10.7l10 17.1h.3c-.4-2.6-.9-5.2-.9-7.8v-9.2H647v30.8h-10.7l-9.8-16.2h-.3c.4 2.1.7 4.1.7 6.2v10h-10.7V92.6zM649.8 92.6h23.5v10l-6.2-.3v21.1H656v-21.1l-6.2.3v-10zM678.1 112.4l.6.4c2 1.6 4.4 2.8 7 2.8 1.1 0 2.9-.5 2.9-1.8 0-1.4-1.5-1.5-2.5-1.7l-2.2-.4c-4.4-.8-8-3.4-8-8.2 0-7.3 6.7-11.4 13.4-11.4 3.5 0 6.7.9 9.8 2.7l-3 7.9c-1.9-1.3-4.1-2.3-6.5-2.3-1 0-2.4.4-2.4 1.6 0 1.1 1.4 1.3 2.3 1.5l2.5.6c4.7 1.1 8.2 3.6 8.2 8.8 0 7.4-6.7 11-13.4 11-3.9 0-8.4-1.1-11.8-2.8l3.1-8.7z"/></g></svg>